HIERARCHY
ROOT hip
{
  OFFSET 0 0 0
  CHANNELS 6 Xposition Yposition Zposition Zrotation Yrotation Xrotation
  JOINT abdomen
  {
    OFFSET 0 20.6881 -0.73152
    CHANNELS 3 Zrotation Xrotation Yrotation
    JOINT chest
    {
      OFFSET 0 11.7043 -0.48768
      CHANNELS 3 Zrotation Xrotation Yrotation
      JOINT neck
      {
        OFFSET 0 22.1894 -2.19456
        CHANNELS 3 Zrotation Xrotation Yrotation
        JOINT head
        {
          OFFSET -0.24384 7.07133 1.2192
          CHANNELS 3 Zrotation Xrotation Yrotation
          JOINT leftEye
          {
            OFFSET 4.14528 8.04674 8.04672
            CHANNELS 3 Zrotation Xrotation Yrotation
            End Site
            {
              OFFSET 1 0 0
            }
          }
          JOINT rightEye
          {
            OFFSET -3.6576 8.04674 8.04672
            CHANNELS 3 Zrotation Xrotation Yrotation
            End Site
            {
              OFFSET 1 0 0
            }
          }
        }
      }
      JOINT rCollar
      {
        OFFSET -2.68224 19.2634 -4.8768
        CHANNELS 3 Zrotation Xrotation Yrotation
        JOINT rShldr
        {
          OFFSET -8.77824 -1.95073 1.46304
          CHANNELS 3 Zrotation Xrotation Yrotation
          JOINT rForeArm
          {
            OFFSET -28.1742 -1.7115 0.48768
            CHANNELS 3 Zrotation Xrotation Yrotation
            JOINT rHand
            {
              OFFSET -22.5879 0.773209 7.07136
              CHANNELS 3 Zrotation Xrotation Yrotation
              JOINT rThumb1
              {
                OFFSET -1.2192 -0.487915 3.41376
                CHANNELS 3 Zrotation Xrotation Yrotation
                JOINT rThumb2
                {
                  OFFSET -3.37035 -0.52449 3.41376
                  CHANNELS 3 Zrotation Xrotation Yrotation
                  End Site
                  {
                    OFFSET -1.78271 -1.18214 1.43049
                  }
                }
              }
              JOINT rIndex1
              {
                OFFSET -7.75947 0.938293 5.60832
                CHANNELS 3 Zrotation Xrotation Yrotation
                JOINT rIndex2
                {
                  OFFSET -2.54057 -0.884171 1.56538
                  CHANNELS 3 Zrotation Xrotation Yrotation
                  End Site
                  {
                    OFFSET -1.62519 -0.234802 1.16502
                  }
                }
              }
              JOINT rMid1
              {
                OFFSET -8.24714 1.18213 3.41376
                CHANNELS 3 Zrotation Xrotation Yrotation
                JOINT rMid2
                {
                  OFFSET -3.10165 -0.590103 1.0647
                  CHANNELS 3 Zrotation Xrotation Yrotation
                  End Site
                  {
                    OFFSET -2.48547 -0.328903 0.83742
                  }
                }
              }
              JOINT rRing1
              {
                OFFSET -8.82822 0.546677 1.51678
                CHANNELS 3 Zrotation Xrotation Yrotation
                JOINT rRing2
                {
                  OFFSET -2.60934 -0.819778 -0.0198488
                  CHANNELS 3 Zrotation Xrotation Yrotation
                  End Site
                  {
                    OFFSET -2.33842 -0.294052 0.168128
                  }
                }
              }
              JOINT rPinky1
              {
                OFFSET -8.27202 -0.0477905 -0.4584
                CHANNELS 3 Zrotation Xrotation Yrotation
                JOINT rPinky2
                {
                  OFFSET -1.82734 -0.647385 -0.700984
                  CHANNELS 3 Zrotation Xrotation Yrotation
                  End Site
                  {
                    OFFSET -1.69225 -0.51767 -0.607171
                  }
                }
              }
            }
          }
        }
      }
      JOINT lCollar
      {
        OFFSET 2.68224 19.2634 -4.8768
        CHANNELS 3 Zrotation Xrotation Yrotation
        JOINT lShldr
        {
          OFFSET 8.77824 -1.95073 1.46304
          CHANNELS 3 Zrotation Xrotation Yrotation
          JOINT lForeArm
          {
            OFFSET 28.1742 -1.7115 0.48768
            CHANNELS 3 Zrotation Xrotation Yrotation
            JOINT lHand
            {
              OFFSET 22.5879 0.773209 7.07136
              CHANNELS 3 Zrotation Xrotation Yrotation
              JOINT lThumb1
              {
                OFFSET 1.2192 -0.487915 3.41376
                CHANNELS 3 Zrotation Xrotation Yrotation
                JOINT lThumb2
                {
                  OFFSET 3.37035 -0.52449 3.41376
                  CHANNELS 3 Zrotation Xrotation Yrotation
                  End Site
                  {
                    OFFSET 1.78271 -1.18214 1.43049
                  }
                }
              }
              JOINT lIndex1
              {
                OFFSET 7.75947 0.938293 5.60832
                CHANNELS 3 Zrotation Xrotation Yrotation
                JOINT lIndex2
                {
                  OFFSET 2.54057 -0.884171 1.56538
                  CHANNELS 3 Zrotation Xrotation Yrotation
                  End Site
                  {
                    OFFSET 1.62519 -0.234802 1.16502
                  }
                }
              }
              JOINT lMid1
              {
                OFFSET 8.24714 1.18213 3.41376
                CHANNELS 3 Zrotation Xrotation Yrotation
                JOINT lMid2
                {
                  OFFSET 3.10165 -0.590103 1.0647
                  CHANNELS 3 Zrotation Xrotation Yrotation
                  End Site
                  {
                    OFFSET 2.48547 -0.328903 0.83742
                  }
                }
              }
              JOINT lRing1
              {
                OFFSET 8.82822 0.546677 1.51678
                CHANNELS 3 Zrotation Xrotation Yrotation
                JOINT lRing2
                {
                  OFFSET 2.60934 -0.819778 -0.0198488
                  CHANNELS 3 Zrotation Xrotation Yrotation
                  End Site
                  {
                    OFFSET 2.33842 -0.294052 0.168128
                  }
                }
              }
              JOINT lPinky1
              {
                OFFSET 8.27202 -0.0477905 -0.4584
                CHANNELS 3 Zrotation Xrotation Yrotation
                JOINT lPinky2
                {
                  OFFSET 1.82734 -0.647385 -0.700984
                  CHANNELS 3 Zrotation Xrotation Yrotation
                  End Site
                  {
                    OFFSET 1.69225 -0.51767 -0.607171
                  }
                }
              }
            }
          }
        }
      }
    }
  }
  JOINT rButtock
  {
    OFFSET -8.77824 4.35084 1.2192
    CHANNELS 3 Zrotation Xrotation Yrotation
    JOINT rThigh
    {
      OFFSET 0 -1.70687 -2.19456
      CHANNELS 3 Zrotation Xrotation Yrotation
      JOINT rShin
      {
        OFFSET 0 -36.8199 0.73152
        CHANNELS 3 Zrotation Xrotation Yrotation
        JOINT rFoot
        {
          OFFSET 0.73152 -45.1104 -5.12064
          CHANNELS 3 Zrotation Xrotation Yrotation
          End Site
          {
            OFFSET -1.1221 -3.69964 12.103
          }
        }
      }
    }
  }
  JOINT lButtock
  {
    OFFSET 8.77824 4.35084 1.2192
    CHANNELS 3 Zrotation Xrotation Yrotation
    JOINT lThigh
    {
      OFFSET 0 -1.70687 -2.19456
      CHANNELS 3 Zrotation Xrotation Yrotation
      JOINT lShin
      {
        OFFSET 0 -36.8199 0.73152
        CHANNELS 3 Zrotation Xrotation Yrotation
        JOINT lFoot
        {
          OFFSET -0.73152 -45.1104 -5.12064
          CHANNELS 3 Zrotation Xrotation Yrotation
          End Site
          {
            OFFSET 1.1221 -3.69964 12.103
          }
        }
      }
    }
  }
}
MOTION
Frames:	4
Frame Time:	0.03333
-0.14790000021457672 47.976898193359375 0.03999999910593033 -3.8777000829577446 74.15260255336761 3.767300024628639 -3.6634599789977074 16.23459979891777 -7.67118014395237 7.798410058021545 -11.736099421977997 -1.4289299212396145 -10.31350001692772 21.38399988412857 -17.652499973773956 22.41199940443039 -23.714300394058228 -30.458199977874756 0.0 0.0 0.0 0.0 0.0 0.0 0.0 0.0 0.0 37.705799639225006 14.138199985027313 9.64384026825428 -25.366200506687164 -47.40630090236664 98.61510515213013 -0.2922080014832318 -15.230399519205093 -2.19265004619956 1.148521278082626e-09 -1.2968826013093349e-09 3.785771696129814e-09 1.9466028788883705e-09 -2.2740209715266246e-09 6.558593668160029e-09 1.148521278082626e-09 -1.2968826013093349e-09 3.785771696129814e-09 7.7309102565050125 5.474880114197731 0.41731400415301323 1.148521278082626e-09 -1.2968826013093349e-09 3.785771696129814e-09 2.905540131032467 0.9651830233633518 0.102901995414868 1.148521278082626e-09 -1.2968826013093349e-09 3.785771696129814e-09 10.27859978377819 0.7318009994924068 0.025912300043273717 1.148521278082626e-09 -1.2968826013093349e-09 3.785771696129814e-09 2.221670038998127 -0.733487019315362 -0.2089200052432716 0.0 0.0 0.0 -13.398500382900238 55.43560087680817 -68.84239733219147 27.335000932216644 -43.04810017347336 -89.5805025100708 0.05483750137500465 -6.665009781718254 0.9410019870847464 -1.1408474165364169e-09 1.0167866548727034e-08 -2.0463630789890885e-09 -1.9542767404345796e-09 1.759872247930616e-08 -3.5504399420460686e-09 -1.1408474165364169e-09 1.0167866548727034e-08 -2.0463630789890885e-09 -7.7309102565050125 5.474880114197731 -0.41731400415301323 -1.1408474165364169e-09 1.0167866548727034e-08 -2.0463630789890885e-09 -2.905540131032467 0.9651830233633518 -0.102901995414868 -1.1408474165364169e-09 1.0167866548727034e-08 -2.0463630789890885e-09 -10.27859978377819 0.7318009994924068 -0.025912300043273717 -1.1408474165364169e-09 1.0167866548727034e-08 -2.0463630789890885e-09 -2.221670038998127 -0.733487019315362 0.2089200052432716 0.0 0.0 0.0 -72.91299819946289 -61.296098828315735 -51.19929850101471 -77.45550155639648 88.9130026102066 77.92409956455231 9.083579778671265 -24.606199264526367 13.994400054216385 0.0 0.0 0.0 70.66099941730499 -43.332800567150116 55.96840023994446 173.01000237464905 82.19190180301666 -175.7259964942932 5.2814700454473495 -26.69380009174347 11.079799756407738
-0.27300000190734863 47.582000732421875 0.09299999848008156 -4.563400112092495 73.5947996377945 3.172999955713749 -3.244969993829727 16.405200362205505 -7.58449986577034 7.621930092573166 -11.866000145673752 -1.3893100060522556 -10.12080006301403 21.432499587535858 -17.63950064778328 22.228800505399704 -23.901599049568176 -30.432000160217285 0.0 0.0 0.0 0.0 0.0 0.0 0.0 0.0 0.0 38.353000581264496 13.264600485563278 10.28829999268055 -25.221398770809174 -47.643799781799316 99.14940118789673 -0.23805099539458752 -13.789099752902985 -1.9763699546456337 2.112869879056234e-09 -2.417266387055861e-09 6.0674665292026475e-09 3.5913672036258504e-09 -4.228297711961204e-09 1.050807441060897e-08 2.112869879056234e-09 -2.417266387055861e-09 6.0674665292026475e-09 7.7309102565050125 5.474880114197731 0.41731400415301323 2.112869879056234e-09 -2.417266387055861e-09 6.0674665292026475e-09 2.905540131032467 0.9651830233633518 0.102901995414868 2.112869879056234e-09 -2.417266387055861e-09 6.0674665292026475e-09 10.27859978377819 0.7318009994924068 0.025912300043273717 2.112869879056234e-09 -2.417266387055861e-09 6.0674665292026475e-09 2.221670038998127 -0.733487019315362 -0.2089200052432716 0.0 0.0 0.0 -13.244100362062454 55.2828973531723 -68.71029853820801 27.236700654029846 -43.349400758743286 -90.16309976577759 0.05518440215382725 -6.685139760375023 0.9438720345497131 -2.0182255866529886e-09 2.192166448367061e-08 -4.6554760047001764e-09 -3.453237695794087e-09 3.790631808442413e-08 -8.072902346611954e-09 -2.0182255866529886e-09 2.192166448367061e-08 -4.6554760047001764e-09 -7.7309102565050125 5.474880114197731 -0.41731400415301323 -2.0182255866529886e-09 2.192166448367061e-08 -4.6554760047001764e-09 -2.905540131032467 0.9651830233633518 -0.102901995414868 -2.0182255866529886e-09 2.192166448367061e-08 -4.6554760047001764e-09 -10.27859978377819 0.7318009994924068 -0.025912300043273717 -2.0182255866529886e-09 2.192166448367061e-08 -4.6554760047001764e-09 -2.221670038998127 -0.733487019315362 0.2089200052432716 0.0 0.0 0.0 -74.1890001296997 -61.72640025615692 -52.62359976768494 -101.46100401878357 88.90980005264282 101.93100214004517 9.09805029630661 -24.39980059862137 14.011300653219223 0.0 0.0 0.0 71.96919858455658 -42.99000084400177 56.80550158023834 173.55100393295288 81.4544016122818 -176.30699515342712 5.232070125639439 -26.81500107049942 10.947000235319138
-0.3920999988913536 47.16749954223633 0.15599999949336052 -5.295599922537804 73.38240087032318 2.4923000670969486 -2.9201699048280716 16.53809979557991 -7.636120319366455 7.5261396914720535 -11.93550020456314 -1.3899799715727568 -9.978549778461456 21.483399868011475 -17.645799815654755 22.19590052962303 -23.980099260807037 -30.431699752807617 0.0 0.0 0.0 0.0 0.0 0.0 0.0 0.0 0.0 39.00920033454895 12.436099648475647 10.872000306844711 -25.096099376678467 -47.842100858688354 99.60229754447937 -0.20460099913179874 -12.765799462795258 -1.8248300068080425 1.8059154172078706e-09 -2.0591528482327703e-09 5.54564394406043e-09 3.0618707569374237e-09 -3.609272880567005e-09 9.60767465585377e-09 1.8059154172078706e-09 -2.0591528482327703e-09 5.54564394406043e-09 7.7309102565050125 5.474880114197731 0.41731400415301323 1.8059154172078706e-09 -2.0591528482327703e-09 5.54564394406043e-09 2.905540131032467 0.9651830233633518 0.102901995414868 1.8059154172078706e-09 -2.0591528482327703e-09 5.54564394406043e-09 10.27859978377819 0.7318009994924068 0.025912300043273717 1.8059154172078706e-09 -2.0591528482327703e-09 5.54564394406043e-09 2.221670038998127 -0.733487019315362 -0.2089200052432716 0.0 0.0 0.0 -13.01060065627098 55.10919749736786 -68.7146008014679 27.162400782108307 -43.56319963932037 -90.58500051498413 0.05802949774079025 -6.850770190358162 0.9674909804016352 -1.964508555829525e-09 2.050967395916814e-08 -4.328057912061922e-09 -3.3637093110883143e-09 3.5463472158880904e-08 -7.49992068449501e-09 -1.964508555829525e-09 2.050967395916814e-08 -4.328057912061922e-09 -7.7309102565050125 5.474880114197731 -0.41731400415301323 -1.964508555829525e-09 2.050967395916814e-08 -4.328057912061922e-09 -2.905540131032467 0.9651830233633518 -0.102901995414868 -1.964508555829525e-09 2.050967395916814e-08 -4.328057912061922e-09 -10.27859978377819 0.7318009994924068 -0.025912300043273717 -1.964508555829525e-09 2.050967395916814e-08 -4.328057912061922e-09 -2.221670038998127 -0.733487019315362 0.2089200052432716 0.0 0.0 0.0 -75.56530058383942 -61.953497529029846 -54.19380247592926 -124.83200311660767 88.68350207805634 125.278000831604 9.46099005639553 -24.180800914764404 14.6479994058609 0.0 0.0 0.0 73.13109934329987 -42.86050111055374 57.49750077724457 173.9680016040802 80.77749788761139 -176.75699472427368 5.195519998669624 -26.890899538993835 10.85709996521473
-0.4904000014066696 46.782901763916016 0.232999999076128 -5.897900015115738 73.24709951877594 2.037199940532446 -2.6881400495767593 16.632899791002274 -7.8262802213430405 7.5109101086854935 -11.944399774074554 -1.4309600181877613 -9.88652989268303 21.536699384450912 -17.671599984169006 22.313099652528763 -23.949500620365143 -30.4571995139122 0.0 0.0 0.0 0.0 0.0 0.0 0.0 0.0 0.0 39.670399725437164 11.652700155973434 11.39599934220314 -24.99279946088791 -48.0027973651886 99.97029662132263 -0.1849479926750064 -12.160899639129639 -1.735519990324974 2.2254198484006338e-10 -2.2509993868879974e-10 2.220303940703161e-09 3.5299763112561777e-10 -4.1438852349529043e-10 3.8471625884994864e-09 2.2254198484006338e-10 -2.2509993868879974e-10 2.220303940703161e-09 7.7309102565050125 5.474880114197731 0.41731400415301323 2.2254198484006338e-10 -2.2509993868879974e-10 2.220303940703161e-09 2.905540131032467 0.9651830233633518 0.102901995414868 2.2254198484006338e-10 -2.2509993868879974e-10 2.220303940703161e-09 10.27859978377819 0.7318009994924068 0.025912300043273717 2.2254198484006338e-10 -2.2509993868879974e-10 2.220303940703161e-09 2.221670038998127 -0.733487019315362 -0.2089200052432716 0.0 0.0 0.0 -12.700100094079971 54.914297461509705 -68.85299742221832 27.117100954055786 -43.69339942932129 -90.83880186080933 0.06373569834977388 -7.161880284547806 1.0119299869984388 -9.796963240660261e-10 5.934452929068357e-09 -1.064108801074326e-09 -1.6856915863172617e-09 1.0270184702676488e-08 -1.8417267710901797e-09 -9.796963240660261e-10 5.934452929068357e-09 -1.064108801074326e-09 -7.7309102565050125 5.474880114197731 -0.41731400415301323 -9.796963240660261e-10 5.934452929068357e-09 -1.064108801074326e-09 -2.905540131032467 0.9651830233633518 -0.102901995414868 -9.796963240660261e-10 5.934452929068357e-09 -1.064108801074326e-09 -10.27859978377819 0.7318009994924068 -0.025912300043273717 -9.796963240660261e-10 5.934452929068357e-09 -1.064108801074326e-09 -2.221670038998127 -0.733487019315362 0.2089200052432716 0.0 0.0 0.0 -77.01220214366913 -61.97309911251068 -55.87719976902008 -141.32199883460999 88.24520230293274 141.71899795532227 10.165900066494942 -23.942199647426605 15.901100635528564 0.0 0.0 0.0 74.1564005613327 -42.94690042734146 58.05449903011322 174.29600358009338 80.1615983247757 -177.11299896240234 5.172230042517185 -26.921500861644745 10.810200199484825
